# xmcd
#
# Track frame offsets:
#	150
#	14055
#	29648
#	45606
#	65645
#	91359
#	107066
#	118984
#	135048
#	153563
#	176081
#
# Disc length: 2572 seconds
#
# Revision: 2
# Processed by: cddbd v1.5.2PL0 Copyright (c) Steve Scherf et al.
# Submitted via: EZCDAudioConverter 7.1.8.1
#
DISCID=990a0a0b
DTITLE=Denise and Vili - Scarlet Latin Song Spanish (EZ-WAV)
DYEAR=1900
DGENRE=Vocal
TTITLE0=Dream A Little Dream Of Me
TTITLE1=Besame Mucho (Kiss Me Much)
TTITLE2=Historia De U Amor (Love Story)
TTITLE3=Fais Do Do (Go To Sleep)
TTITLE4=The Way We Were
TTITLE5=So Dance Samba (I Only Dance Samba)
TTITLE6=You Don't Have To Say You Love Me
TTITLE7=Blue Bird
TTITLE8=Cabeza De Coco (Coconut Head)
TTITLE9=Masquenada (Even With Nothing)
TTITLE10=Cancion De Cuna (Candle Song)
EXTD=
EXTT0=
EXTT1=
EXTT2=
EXTT3=
EXTT4=
EXTT5=
EXTT6=
EXTT7=
EXTT8=
EXTT9=
EXTT10=
PLAYORDER=
